<svg xmlns="http://www.w3.org/2000/svg" xmlns:xlink="http://www.w3.org/1999/xlink" width="20.3134765625" height="20.8238525390625" viewBox="0 0 20.3134765625 20.8238525390625" fill="none">
<path fill-rule="evenodd"  fill="rgba(38, 42, 47, 1)"  d="M6.35235 2.51402L2.93214 5.44653C1.31277 6.835 1.12557 9.27334 2.51404 10.8927L4.1903 12.8478C5.57877 14.4671 8.01711 14.6543 9.63648 13.2659L13.0567 10.3333C14.6761 8.94488 14.8633 6.50654 13.4748 4.88716L11.7985 2.93213C10.4101 1.31275 7.97173 1.12556 6.35235 2.51402ZM3.38482 10.1461C2.40869 9.00764 2.54029 7.29343 3.67875 6.31731L7.09896 3.3848C8.23743 2.40867 9.95164 2.54027 10.9278 3.67874L12.604 5.63377C13.5801 6.77223 13.4485 8.48644 12.3101 9.46257L8.88988 12.3951C7.75141 13.3712 6.0372 13.2396 5.06108 12.1011L3.38482 10.1461Z">
</path>
<path    stroke="rgba(38, 42, 47, 1)" stroke-width="1.147030234336853"  stroke-linecap="round"  d="M15.5583 16.9404L11.1312 11.6643">
</path>
</svg>
